<svg width="48" height="42" viewBox="0 0 48 42" fill="none" xmlns="http://www.w3.org/2000/svg">
<path d="M46.4219 16.6035H37.1276L30.3618 0.935653C30.0277 0.162031 29.1042 -0.204607 28.2995 0.116227C27.4946 0.437364 27.1128 1.32484 27.4469 2.09846L33.7106 16.6035H14.2894L20.5531 2.09846C20.8872 1.32484 20.5054 0.437263 19.7005 0.116227C18.8959 -0.204809 17.9722 0.162031 17.6382 0.935653L10.8724 16.6035H1.578C0.706524 16.6035 0 17.2826 0 18.1202C0 18.9579 0.706524 19.637 1.578 19.637H2.52691L5.62063 35.8994C6.29318 39.4343 9.49495 42 13.2337 42H34.7664C38.5053 42 41.7069 39.4343 42.3794 35.8994L45.4731 19.637H46.422C47.2935 19.637 48 18.9579 48 18.1202C48 17.2826 47.2934 16.6035 46.4219 16.6035ZM39.2747 35.3537C38.8764 37.4471 36.9804 38.9665 34.7663 38.9665H13.2336C11.0195 38.9665 9.12338 37.4471 8.72509 35.3537L5.74877 19.7086H42.251L39.2747 35.3537Z" fill="black"/>
</svg>
