<svg width="48" height="42" fill="none" xmlns="http://www.w3.org/2000/svg"><path d="M46.422 16.604h-9.294L30.362.936c-.334-.774-1.258-1.14-2.063-.82-.804.321-1.186 1.209-.852 1.982l6.264 14.506H14.289l6.264-14.506c.334-.773-.048-1.66-.852-1.982-.805-.32-1.729.046-2.063.82l-6.766 15.668H1.578C.707 16.604 0 17.282 0 18.12s.707 1.517 1.578 1.517h.949L5.62 35.899C6.293 39.434 9.495 42 13.234 42h21.532c3.74 0 6.94-2.566 7.613-6.1l3.094-16.263h.949c.872 0 1.578-.68 1.578-1.517 0-.837-.707-1.517-1.578-1.517zm-7.147 18.75c-.399 2.093-2.295 3.613-4.509 3.613H13.234c-2.214 0-4.11-1.52-4.509-3.613L5.75 19.709h36.5l-2.976 15.645z" fill="#000"/></svg>